<svg width="20" height="20" viewBox="0 0 20 20" fill="none" xmlns="http://www.w3.org/2000/svg">
<g clip-path="url(#clip0_59_38)">
<path d="M10 10.5625C10.4832 10.5625 10.875 10.1707 10.875 9.6875C10.875 9.20425 10.4832 8.8125 10 8.8125C9.51675 8.8125 9.125 9.20425 9.125 9.6875C9.125 10.1707 9.51675 10.5625 10 10.5625Z" fill="#699635"/>
<path d="M1.18739 12.5C-0.656356 15.5625 2.53114 16.5 3.93739 15.4688C2.87489 17.0313 3.90614 19.9688 6.96864 18.1875C10.3749 16.1875 9.43739 10.5313 9.62489 9.87501C9.06239 9.96876 3.15614 9.21876 1.18739 12.5Z" fill="#7BB246"/>
<path d="M3.9375 15.4687C4.375 14.9687 4.84375 14.5 5.28125 14L6.6875 12.5937C7.15625 12.125 7.625 11.6563 8.125 11.2188L8.84375 10.5313L9.59375 9.875L8.9375 10.625L8.25 11.3437L6.84375 12.75C6.375 13.2187 5.90625 13.6875 5.40625 14.125C4.9375 14.5937 4.46875 15.0312 3.9375 15.4687Z" fill="#699635"/>
<path d="M18.8125 6.87505C20.6562 3.81255 17.4688 2.87505 16.0625 3.9063C17.125 2.3438 16.0938 -0.593699 13.0312 1.18755C9.625 3.18755 10.5625 8.8438 10.375 9.50005C10.9375 9.4063 16.8438 10.1563 18.8125 6.87505Z" fill="#7BB246"/>
<path d="M16.0625 3.90625C15.625 4.40625 15.1562 4.875 14.7188 5.375L13.3125 6.78125C12.8437 7.25 12.375 7.71875 11.875 8.15625L11.1563 8.84375L10.4062 9.5L11.0625 8.75L11.75 8.03125L13.1562 6.625C13.625 6.15625 14.0938 5.6875 14.5938 5.25C15.0625 4.78125 15.5313 4.34375 16.0625 3.90625Z" fill="#699635"/>
<path d="M6.96881 1.18747C3.84381 -0.625028 2.90631 2.49997 3.93756 3.90622C2.37506 2.87497 -0.624938 3.87497 1.18756 6.87497C3.21881 10.2187 8.96881 9.31247 9.62506 9.46872C9.53131 8.93747 10.3126 3.12497 6.96881 1.18747Z" fill="#83BF4F"/>
<path d="M3.9375 3.90625C4.4375 4.34375 4.9375 4.78125 5.40625 5.21875C5.90625 5.65625 6.375 6.125 6.84375 6.59375L8.25 8L8.9375 8.71875L9.59375 9.46875L8.84375 8.8125L8.125 8.15625C7.625 7.71875 7.15625 7.25 6.6875 6.78125L5.28125 5.375C4.84375 4.875 4.375 4.40625 3.9375 3.90625Z" fill="#699635"/>
<path d="M13.0312 18.1875C16.1562 20 17.0937 16.875 16.0625 15.4688C17.6562 16.5 20.625 15.5 18.8125 12.5C16.7812 9.15627 11.0312 10.0625 10.375 9.90627C10.4687 10.4375 9.68748 16.25 13.0312 18.1875Z" fill="#83BF4F"/>
<path d="M16.0625 15.4688C15.5625 15.0312 15.0625 14.5937 14.5938 14.1562C14.0938 13.7187 13.625 13.25 13.1562 12.7813L11.75 11.375L11.0625 10.625L10.4062 9.875L11.1563 10.5313L11.875 11.2188C12.375 11.6563 12.8437 12.125 13.3125 12.5937L14.7187 14C15.1562 14.5 15.625 14.9688 16.0625 15.4688ZM10 11.5L10.7812 18.5938C10.8125 19 10.5 19.3438 10.0937 19.375C9.65625 19.4062 9.28125 19.125 9.21875 18.7188V18.5625L10 11.5Z" fill="#699635"/>
</g>
<defs>
<clipPath id="clip0_59_38">
<rect width="20" height="20" fill="white"/>
</clipPath>
</defs>
</svg>
