<svg width="50" height="50" viewBox="0 0 50 50" fill="none" xmlns="http://www.w3.org/2000/svg">
<circle cx="25" cy="25" r="25" fill="#FBF341" fill-opacity="0.14"/>
<path d="M38.4898 18.5045C38.3237 17.8882 37.9991 17.3261 37.5482 16.8743C37.0974 16.4224 36.5361 16.0966 35.9202 15.9291C33.6365 15.302 24.5 15.2918 24.5 15.2918C24.5 15.2918 15.365 15.2816 13.0798 15.8809C12.4643 16.0561 11.9041 16.3866 11.4531 16.8407C11.0021 17.2948 10.6754 17.8571 10.5044 18.4738C9.90208 20.7576 9.89624 25.4943 9.89624 25.4943C9.89624 25.4943 9.89041 30.2543 10.4883 32.5147C10.8237 33.7645 11.8081 34.7518 13.0594 35.0886C15.3665 35.7157 24.4781 35.7259 24.4781 35.7259C24.4781 35.7259 33.6146 35.7361 35.8983 35.1382C36.5145 34.971 37.0763 34.6459 37.5282 34.1949C37.9802 33.744 38.3066 33.1829 38.4752 32.5672C39.079 30.2849 39.0833 25.5497 39.0833 25.5497C39.0833 25.5497 39.1125 20.7882 38.4898 18.5045ZM21.5775 29.8824L21.5848 21.1324L29.1783 25.5147L21.5775 29.8824Z" fill="#0FA958"/>
</svg>
