<svg width="50" height="50" viewBox="0 0 50 50" fill="none" xmlns="http://www.w3.org/2000/svg">
<circle cx="25" cy="25" r="25" fill="#FBF341" fill-opacity="0.14"/>
<path fill-rule="evenodd" clip-rule="evenodd" d="M21.2863 21.7113H25.9287V24.0238C26.5975 22.6938 28.3125 21.4988 30.8888 21.4988C35.8275 21.4988 37 24.1463 37 29.0037V38H32V30.11C32 27.3438 31.3313 25.7838 29.6287 25.7838C27.2675 25.7838 26.2863 27.465 26.2863 30.1087V38H21.2863V21.7113ZM12.7125 37.7875H17.7125V21.4988H12.7125V37.7875ZM18.4288 16.1875C18.4289 16.6066 18.3458 17.0215 18.1842 17.4082C18.0226 17.7949 17.7858 18.1456 17.4875 18.44C16.883 19.0408 16.0648 19.3771 15.2125 19.375C14.3617 19.3744 13.5454 19.039 12.94 18.4413C12.6428 18.1459 12.4067 17.7948 12.2454 17.408C12.0841 17.0213 12.0007 16.6065 12 16.1875C12 15.3413 12.3375 14.5313 12.9413 13.9338C13.5461 13.3352 14.3628 12.9996 15.2138 13C16.0663 13 16.8837 13.3363 17.4875 13.9338C18.09 14.5313 18.4288 15.3413 18.4288 16.1875Z" fill="#0FA958"/>
</svg>
