<svg width="50" height="50" viewBox="0 0 50 50" fill="none" xmlns="http://www.w3.org/2000/svg">
<circle cx="25" cy="25" r="25" fill="#FBF341" fill-opacity="0.14"/>
<path d="M32 13.7024C32 13.5183 31.9282 13.3417 31.8003 13.2115C31.6724 13.0814 31.499 13.0082 31.3182 13.0082H27.9091C26.1924 12.9211 24.5117 13.5294 23.2342 14.7001C21.9566 15.8708 21.1861 17.5088 21.0909 19.2562V23.0049H17.6818C17.501 23.0049 17.3276 23.0781 17.1997 23.2083C17.0718 23.3384 17 23.515 17 23.6991V27.3091C17 27.4932 17.0718 27.6698 17.1997 27.8C17.3276 27.9301 17.501 28.0033 17.6818 28.0033H21.0909V37.3058C21.0909 37.4899 21.1627 37.6665 21.2906 37.7967C21.4185 37.9269 21.5919 38 21.7727 38H25.8636C26.0445 38 26.2179 37.9269 26.3458 37.7967C26.4736 37.6665 26.5455 37.4899 26.5455 37.3058V28.0033H30.1182C30.2698 28.0055 30.4178 27.9562 30.5388 27.8632C30.6599 27.7701 30.747 27.6387 30.7864 27.4896L31.7682 23.8796C31.7953 23.7771 31.799 23.6695 31.7788 23.5653C31.7587 23.461 31.7154 23.3629 31.6522 23.2784C31.5889 23.1939 31.5075 23.1253 31.4141 23.0779C31.3208 23.0305 31.218 23.0055 31.1136 23.0049H26.5455V19.2562C26.5794 18.9125 26.7379 18.594 26.99 18.363C27.2422 18.1319 27.5699 18.0048 27.9091 18.0066H31.3182C31.499 18.0066 31.6724 17.9334 31.8003 17.8032C31.9282 17.673 32 17.4965 32 17.3124V13.7024Z" fill="#0FA958"/>
</svg>
