<svg width="103" height="53" viewBox="0 0 103 53" fill="none" xmlns="http://www.w3.org/2000/svg">
<path d="M16.02 15.85V20.53H7.56V24.25H13.8V28.72H7.56V37H1.68V15.85H16.02Z" fill="#4BA659"/>
<path d="M40.96 26.38C40.96 24.3 41.39 22.45 42.25 20.83C43.13 19.19 44.37 17.92 45.97 17.02C47.57 16.1 49.41 15.64 51.49 15.64C54.13 15.64 56.35 16.35 58.15 17.77C59.95 19.17 61.11 21.08 61.63 23.5H55.3C54.92 22.7 54.39 22.09 53.71 21.67C53.05 21.25 52.28 21.04 51.4 21.04C50.04 21.04 48.95 21.53 48.13 22.51C47.33 23.47 46.93 24.76 46.93 26.38C46.93 28.02 47.33 29.33 48.13 30.31C48.95 31.27 50.04 31.75 51.4 31.75C52.28 31.75 53.05 31.54 53.71 31.12C54.39 30.7 54.92 30.09 55.3 29.29H61.63C61.11 31.71 59.95 33.63 58.15 35.05C56.35 36.45 54.13 37.15 51.49 37.15C49.41 37.15 47.57 36.7 45.97 35.8C44.37 34.88 43.13 33.61 42.25 31.99C41.39 30.35 40.96 28.48 40.96 26.38ZM70.1744 15.85V28.12C70.1744 29.26 70.4344 30.14 70.9544 30.76C71.4944 31.38 72.3044 31.69 73.3844 31.69C74.4644 31.69 75.2744 31.38 75.8144 30.76C76.3744 30.12 76.6544 29.24 76.6544 28.12V15.85H82.5344V28.12C82.5344 30.06 82.1244 31.72 81.3044 33.1C80.4844 34.46 79.3644 35.49 77.9444 36.19C76.5444 36.87 74.9844 37.21 73.2644 37.21C71.5444 37.21 70.0044 36.87 68.6444 36.19C67.3044 35.49 66.2444 34.46 65.4644 33.1C64.7044 31.74 64.3244 30.08 64.3244 28.12V15.85H70.1744ZM93.7518 37.21C91.2918 37.21 89.2718 36.63 87.6918 35.47C86.1118 34.29 85.2618 32.61 85.1418 30.43H91.4118C91.4718 31.17 91.6918 31.71 92.0718 32.05C92.4518 32.39 92.9418 32.56 93.5418 32.56C94.0818 32.56 94.5218 32.43 94.8618 32.17C95.2218 31.89 95.4018 31.51 95.4018 31.03C95.4018 30.41 95.1118 29.93 94.5318 29.59C93.9518 29.25 93.0118 28.87 91.7118 28.45C90.3318 27.99 89.2118 27.55 88.3518 27.13C87.5118 26.69 86.7718 26.06 86.1318 25.24C85.5118 24.4 85.2018 23.31 85.2018 21.97C85.2018 20.61 85.5418 19.45 86.2218 18.49C86.9018 17.51 87.8418 16.77 89.0418 16.27C90.2418 15.77 91.6018 15.52 93.1218 15.52C95.5818 15.52 97.5418 16.1 99.0018 17.26C100.482 18.4 101.272 20.01 101.372 22.09H94.9818C94.9618 21.45 94.7618 20.97 94.3818 20.65C94.0218 20.33 93.5518 20.17 92.9718 20.17C92.5318 20.17 92.1718 20.3 91.8918 20.56C91.6118 20.82 91.4718 21.19 91.4718 21.67C91.4718 22.07 91.6218 22.42 91.9218 22.72C92.2418 23 92.6318 23.25 93.0918 23.47C93.5518 23.67 94.2318 23.93 95.1318 24.25C96.4718 24.71 97.5718 25.17 98.4318 25.63C99.3118 26.07 100.062 26.7 100.682 27.52C101.322 28.32 101.642 29.34 101.642 30.58C101.642 31.84 101.322 32.97 100.682 33.97C100.062 34.97 99.1518 35.76 97.9518 36.34C96.7718 36.92 95.3718 37.21 93.7518 37.21Z" fill="#4BA659"/>
<circle cx="30" cy="15" r="13.5" fill="#D9D9D9" fill-opacity="0.02" stroke="#4BA659" stroke-width="3"/>
<circle cx="30" cy="15" r="6.7" fill="#D9D9D9" fill-opacity="0.02" stroke="#4BA659"/>
<circle cx="30.0001" cy="15.0001" r="3.4" fill="#D9D9D9" fill-opacity="0.02" stroke="#4BA659"/>
<circle cx="30.0001" cy="15.0001" r="1.9" fill="#4BA659" stroke="#4BA659"/>
<line x1="28.8" y1="28.8066" x2="28.8" y2="1.20012" stroke="#4BA659" stroke-width="3"/>
<line x1="16.2" y1="13.5" x2="43.8146" y2="13.5" stroke="#4BA659" stroke-width="3"/>
<line x1="21.8" y1="15.3" x2="21.8" y2="13.8" stroke="#4BA659" stroke-width="2"/>
<line x1="25.1001" y1="15.3" x2="25.1001" y2="13.8" stroke="#4BA659" stroke-width="2"/>
<line x1="36.5" y1="15.3" x2="36.5" y2="13.8" stroke="#4BA659" stroke-width="2"/>
<line x1="33.2" y1="15.3" x2="33.2" y2="13.8" stroke="#4BA659" stroke-width="2"/>
<line x1="29.1001" y1="21.2" x2="30.6001" y2="21.2" stroke="#4BA659" stroke-width="2"/>
<line x1="29.1001" y1="17.8999" x2="30.6001" y2="17.8999" stroke="#4BA659" stroke-width="2"/>
<line x1="29.1001" y1="10.3999" x2="30.6001" y2="10.3999" stroke="#4BA659" stroke-width="2"/>
<line x1="29.1001" y1="7.1001" x2="30.6001" y2="7.1001" stroke="#4BA659" stroke-width="2"/>
<path d="M4.554 44.743C4.452 44.575 4.311 44.446 4.131 44.356C3.957 44.266 3.75 44.221 3.51 44.221C3.066 44.221 2.715 44.365 2.457 44.653C2.205 44.941 2.079 45.328 2.079 45.814C2.079 46.36 2.214 46.777 2.484 47.065C2.76 47.347 3.159 47.488 3.681 47.488C4.299 47.488 4.74 47.209 5.004 46.651H3.231V45.382H6.525V47.092C6.387 47.428 6.183 47.743 5.913 48.037C5.649 48.331 5.313 48.574 4.905 48.766C4.497 48.952 4.032 49.045 3.51 49.045C2.874 49.045 2.31 48.91 1.818 48.64C1.332 48.364 0.954 47.983 0.684 47.497C0.42 47.005 0.288 46.444 0.288 45.814C0.288 45.19 0.42 44.635 0.684 44.149C0.954 43.657 1.332 43.276 1.818 43.006C2.304 42.73 2.865 42.592 3.501 42.592C4.299 42.592 4.959 42.784 5.481 43.168C6.003 43.552 6.327 44.077 6.453 44.743H4.554ZM10.5285 49L9.26852 46.66H9.07952V49H7.31552V42.655H10.0965C10.6065 42.655 11.0385 42.745 11.3925 42.925C11.7465 43.099 12.0135 43.342 12.1935 43.654C12.3735 43.96 12.4635 44.305 12.4635 44.689C12.4635 45.121 12.3435 45.502 12.1035 45.832C11.8695 46.156 11.5245 46.387 11.0685 46.525L12.4995 49H10.5285ZM9.07952 45.454H9.95252C10.1925 45.454 10.3725 45.397 10.4925 45.283C10.6125 45.169 10.6725 45.004 10.6725 44.788C10.6725 44.584 10.6095 44.425 10.4835 44.311C10.3635 44.191 10.1865 44.131 9.95252 44.131H9.07952V45.454ZM16.3077 49.063C15.7137 49.063 15.1677 48.925 14.6697 48.649C14.1717 48.367 13.7757 47.98 13.4817 47.488C13.1937 46.99 13.0497 46.429 13.0497 45.805C13.0497 45.181 13.1937 44.623 13.4817 44.131C13.7757 43.633 14.1717 43.246 14.6697 42.97C15.1677 42.694 15.7137 42.556 16.3077 42.556C16.9077 42.556 17.4537 42.694 17.9457 42.97C18.4437 43.246 18.8367 43.633 19.1247 44.131C19.4127 44.623 19.5567 45.181 19.5567 45.805C19.5567 46.429 19.4127 46.99 19.1247 47.488C18.8367 47.98 18.4437 48.367 17.9457 48.649C17.4477 48.925 16.9017 49.063 16.3077 49.063ZM16.3077 47.425C16.7577 47.425 17.1117 47.278 17.3697 46.984C17.6337 46.69 17.7657 46.297 17.7657 45.805C17.7657 45.301 17.6337 44.905 17.3697 44.617C17.1117 44.323 16.7577 44.176 16.3077 44.176C15.8517 44.176 15.4947 44.323 15.2367 44.617C14.9787 44.905 14.8497 45.301 14.8497 45.805C14.8497 46.303 14.9787 46.699 15.2367 46.993C15.4947 47.281 15.8517 47.425 16.3077 47.425ZM22.0777 42.655V46.336C22.0777 46.678 22.1557 46.942 22.3117 47.128C22.4737 47.314 22.7167 47.407 23.0407 47.407C23.3647 47.407 23.6077 47.314 23.7697 47.128C23.9377 46.936 24.0217 46.672 24.0217 46.336V42.655H25.7857V46.336C25.7857 46.918 25.6627 47.416 25.4167 47.83C25.1707 48.238 24.8347 48.547 24.4087 48.757C23.9887 48.961 23.5207 49.063 23.0047 49.063C22.4887 49.063 22.0267 48.961 21.6187 48.757C21.2167 48.547 20.8987 48.238 20.6647 47.83C20.4367 47.422 20.3227 46.924 20.3227 46.336V42.655H22.0777ZM31.7699 44.77C31.7699 45.154 31.6799 45.505 31.4999 45.823C31.3259 46.135 31.0589 46.387 30.6989 46.579C30.3449 46.765 29.9099 46.858 29.3939 46.858H28.5209V49H26.7569V42.655H29.3939C29.9039 42.655 30.3359 42.745 30.6899 42.925C31.0499 43.105 31.3199 43.354 31.4999 43.672C31.6799 43.99 31.7699 44.356 31.7699 44.77ZM29.2229 45.454C29.7209 45.454 29.9699 45.226 29.9699 44.77C29.9699 44.308 29.7209 44.077 29.2229 44.077H28.5209V45.454H29.2229ZM37.2433 49.063C36.6493 49.063 36.1033 48.925 35.6053 48.649C35.1073 48.367 34.7113 47.98 34.4173 47.488C34.1293 46.99 33.9853 46.429 33.9853 45.805C33.9853 45.181 34.1293 44.623 34.4173 44.131C34.7113 43.633 35.1073 43.246 35.6053 42.97C36.1033 42.694 36.6493 42.556 37.2433 42.556C37.8433 42.556 38.3893 42.694 38.8813 42.97C39.3793 43.246 39.7723 43.633 40.0603 44.131C40.3483 44.623 40.4923 45.181 40.4923 45.805C40.4923 46.429 40.3483 46.99 40.0603 47.488C39.7723 47.98 39.3793 48.367 38.8813 48.649C38.3833 48.925 37.8373 49.063 37.2433 49.063ZM37.2433 47.425C37.6933 47.425 38.0473 47.278 38.3053 46.984C38.5693 46.69 38.7013 46.297 38.7013 45.805C38.7013 45.301 38.5693 44.905 38.3053 44.617C38.0473 44.323 37.6933 44.176 37.2433 44.176C36.7873 44.176 36.4303 44.323 36.1723 44.617C35.9143 44.905 35.7853 45.301 35.7853 45.805C35.7853 46.303 35.9143 46.699 36.1723 46.993C36.4303 47.281 36.7873 47.425 37.2433 47.425ZM45.5873 42.655V44.059H43.0493V45.175H44.9213V46.516H43.0493V49H41.2853V42.655H45.5873ZM47.8368 45.814C47.8368 45.19 47.9658 44.635 48.2238 44.149C48.4878 43.657 48.8598 43.276 49.3398 43.006C49.8198 42.73 50.3718 42.592 50.9958 42.592C51.7878 42.592 52.4538 42.805 52.9938 43.231C53.5338 43.651 53.8818 44.224 54.0378 44.95H52.1388C52.0248 44.71 51.8658 44.527 51.6618 44.401C51.4638 44.275 51.2328 44.212 50.9688 44.212C50.5608 44.212 50.2338 44.359 49.9878 44.653C49.7478 44.941 49.6278 45.328 49.6278 45.814C49.6278 46.306 49.7478 46.699 49.9878 46.993C50.2338 47.281 50.5608 47.425 50.9688 47.425C51.2328 47.425 51.4638 47.362 51.6618 47.236C51.8658 47.11 52.0248 46.927 52.1388 46.687H54.0378C53.8818 47.413 53.5338 47.989 52.9938 48.415C52.4538 48.835 51.7878 49.045 50.9958 49.045C50.3718 49.045 49.8198 48.91 49.3398 48.64C48.8598 48.364 48.4878 47.983 48.2238 47.497C47.9658 47.005 47.8368 46.444 47.8368 45.814ZM57.9151 49.063C57.3211 49.063 56.7751 48.925 56.2771 48.649C55.7791 48.367 55.3831 47.98 55.0891 47.488C54.8011 46.99 54.6571 46.429 54.6571 45.805C54.6571 45.181 54.8011 44.623 55.0891 44.131C55.3831 43.633 55.7791 43.246 56.2771 42.97C56.7751 42.694 57.3211 42.556 57.9151 42.556C58.5151 42.556 59.0611 42.694 59.5531 42.97C60.0511 43.246 60.4441 43.633 60.7321 44.131C61.0201 44.623 61.1641 45.181 61.1641 45.805C61.1641 46.429 61.0201 46.99 60.7321 47.488C60.4441 47.98 60.0511 48.367 59.5531 48.649C59.0551 48.925 58.5091 49.063 57.9151 49.063ZM57.9151 47.425C58.3651 47.425 58.7191 47.278 58.9771 46.984C59.2411 46.69 59.3731 46.297 59.3731 45.805C59.3731 45.301 59.2411 44.905 58.9771 44.617C58.7191 44.323 58.3651 44.176 57.9151 44.176C57.4591 44.176 57.1021 44.323 56.8441 44.617C56.5861 44.905 56.4571 45.301 56.4571 45.805C56.4571 46.303 56.5861 46.699 56.8441 46.993C57.1021 47.281 57.4591 47.425 57.9151 47.425ZM69.3641 42.655V49H67.6001V45.499L66.4031 49H64.9271L63.7211 45.472V49H61.9571V42.655H64.0901L65.6831 46.777L67.2401 42.655H69.3641ZM75.3813 44.77C75.3813 45.154 75.2913 45.505 75.1113 45.823C74.9373 46.135 74.6703 46.387 74.3103 46.579C73.9563 46.765 73.5213 46.858 73.0053 46.858H72.1323V49H70.3683V42.655H73.0053C73.5153 42.655 73.9473 42.745 74.3013 42.925C74.6613 43.105 74.9313 43.354 75.1113 43.672C75.2913 43.99 75.3813 44.356 75.3813 44.77ZM72.8343 45.454C73.3323 45.454 73.5813 45.226 73.5813 44.77C73.5813 44.308 73.3323 44.077 72.8343 44.077H72.1323V45.454H72.8343ZM80.1039 47.965H77.8539L77.5119 49H75.6579L77.9709 42.655H80.0049L82.3089 49H80.4459L80.1039 47.965ZM79.6629 46.615L78.9789 44.563L78.3039 46.615H79.6629ZM88.7609 49H86.9969L84.6479 45.454V49H82.8839V42.655H84.6479L86.9969 46.246V42.655H88.7609V49ZM91.5297 42.655V49H89.7657V42.655H91.5297ZM94.2983 44.068V45.103H96.3233V46.444H94.2983V47.587H96.5933V49H92.5343V42.655H96.5933V44.068H94.2983ZM99.8589 49.063C99.1209 49.063 98.5149 48.889 98.0409 48.541C97.5669 48.187 97.3119 47.683 97.2759 47.029H99.1569C99.1749 47.251 99.2409 47.413 99.3549 47.515C99.4689 47.617 99.6159 47.668 99.7959 47.668C99.9579 47.668 100.09 47.629 100.192 47.551C100.3 47.467 100.354 47.353 100.354 47.209C100.354 47.023 100.267 46.879 100.093 46.777C99.9189 46.675 99.6369 46.561 99.2469 46.435C98.8329 46.297 98.4969 46.165 98.2389 46.039C97.9869 45.907 97.7649 45.718 97.5729 45.472C97.3869 45.22 97.2939 44.893 97.2939 44.491C97.2939 44.083 97.3959 43.735 97.5999 43.447C97.8039 43.153 98.0859 42.931 98.4459 42.781C98.8059 42.631 99.2139 42.556 99.6699 42.556C100.408 42.556 100.996 42.73 101.434 43.078C101.878 43.42 102.115 43.903 102.145 44.527H100.228C100.222 44.335 100.162 44.191 100.048 44.095C99.9399 43.999 99.7989 43.951 99.6249 43.951C99.4929 43.951 99.3849 43.99 99.3009 44.068C99.2169 44.146 99.1749 44.257 99.1749 44.401C99.1749 44.521 99.2199 44.626 99.3099 44.716C99.4059 44.8 99.5229 44.875 99.6609 44.941C99.7989 45.001 100.003 45.079 100.273 45.175C100.675 45.313 101.005 45.451 101.263 45.589C101.527 45.721 101.752 45.91 101.938 46.156C102.13 46.396 102.226 46.702 102.226 47.074C102.226 47.452 102.13 47.791 101.938 48.091C101.752 48.391 101.479 48.628 101.119 48.802C100.765 48.976 100.345 49.063 99.8589 49.063Z" fill="#4BA659"/>
</svg>
