<svg width="20" height="17" viewBox="0 0 20 17" fill="none" xmlns="http://www.w3.org/2000/svg">
<path d="M18 16.0078H2C1.46957 16.0078 0.960859 15.7971 0.585786 15.422C0.210714 15.047 0 14.5382 0 14.0078V1.92081C0.0224326 1.4056 0.243009 0.918971 0.615678 0.562513C0.988347 0.206055 1.4843 0.00732526 2 0.0078134H18C18.5304 0.0078134 19.0391 0.218527 19.4142 0.5936C19.7893 0.968672 20 1.47738 20 2.00781V14.0078C20 14.5382 19.7893 15.047 19.4142 15.422C19.0391 15.7971 18.5304 16.0078 18 16.0078ZM2 3.87581V14.0078H18V3.87581L10 9.20781L2 3.87581ZM2.8 2.00781L10 6.80781L17.2 2.00781H2.8Z" fill="#0FA958"/>
</svg>
